<svg version="1.1" xmlns="http://www.w3.org/2000/svg" style="display: block;" viewBox="0 0 2048 1150" width="666" height="374">
<path transform="translate(0,0)" fill="rgb(46,93,147)" d="M 650.759 493.459 C 649.114 493.518 647.463 493.451 645.818 493.401 C 615.358 492.475 586.893 478.737 566.138 456.53 C 543.816 432.646 533.791 403.141 534.994 370.584 C 536.079 341.237 548.686 309.534 570.451 289.437 C 589 272.308 610.393 263.196 635.227 259.757 C 657.672 256.649 698.374 258.804 722.343 258.807 L 903.814 258.815 L 1224.91 258.782 L 1329.38 258.737 C 1351.06 258.726 1372.85 258.274 1394.51 259.184 C 1398.71 262.899 1402.16 267.576 1405.71 271.91 C 1410.11 277.28 1421.09 288.218 1420.4 295.126 C 1413.23 298.529 1236.04 298.097 1211.71 297.467 C 1195.72 297.054 1179.88 294.547 1163.87 294.263 C 1125.25 293.579 1086.52 294.129 1047.89 294.131 L 829.009 294.163 L 720.846 294.149 C 692.327 294.131 663.483 292.978 635.191 297.047 C 626.803 298.986 619.426 301.324 611.771 305.41 C 591.434 322.657 575.728 336.444 571.622 364.451 C 568.372 386.621 574.704 408.924 588.092 426.711 C 603.327 446.951 625.509 455.823 649.911 459.199 C 650.593 470.585 650.553 482.055 650.759 493.459 z"/>
<path transform="translate(0,0)" fill="rgb(46,93,147)" d="M 773.735 360.398 C 823.163 358.814 872.947 360.115 922.424 360.115 L 1203.82 360.094 L 1384.21 360.068 C 1414.25 360.066 1447.98 358.139 1477.68 360.706 C 1484.22 366.731 1501.26 386.859 1503.04 395.038 L 1502.15 396.021 C 1476.98 394.275 1450.75 395.915 1425.46 395.936 C 1374.23 395.979 1322.79 395.036 1271.59 396.073 C 1261.7 396.273 1251.88 398.132 1241.99 398.368 C 1222.66 398.828 1202.92 396.691 1183.57 396.161 C 1154.94 395.378 1126.14 395.959 1097.5 395.962 C 1072.2 395.939 1046.75 395.381 1021.46 396.125 C 1009 396.492 996.475 398.616 984.033 398.455 C 971.389 398.292 958.747 396.453 946.086 396.11 C 919.095 395.379 891.948 395.906 864.943 395.889 C 839.855 395.873 814.576 395.252 789.507 396.189 C 764.15 397.138 738.298 404.035 720.633 423.352 C 704.007 441.533 699.498 462.67 700.657 486.725 C 701.562 505.522 712.541 526.276 726.541 538.828 C 747.727 557.823 769.609 560.045 796.86 558.56 C 796.65 571.191 796.369 583.82 796.018 596.448 C 766.289 596.457 735.758 592.003 711.782 572.792 C 688.439 554.089 667.773 526.806 664.526 496.179 C 661.044 463.342 666.807 430.009 688 403.893 C 710.922 375.645 738.143 364.053 773.735 360.398 z"/>
<path transform="translate(0,0)" fill="rgb(46,93,147)" d="M 729.692 456.449 C 741.779 455.677 753.989 455.981 766.098 455.994 C 797.615 456.029 830.242 456.141 858.525 472.185 C 885.32 487.385 905.181 517.998 913.1 547.302 C 921.505 578.401 914.044 609.969 898.379 637.335 C 884.123 662.241 857.698 680.095 830.354 687.424 C 821.762 689.728 813.185 690.82 804.308 691.188 C 760.601 692.996 716.16 691.391 672.371 691.254 C 639.426 691.15 606.049 692.734 573.178 691.587 C 569.565 691.461 565.798 691.276 562.6 689.428 C 553.012 679.018 545.266 668.379 537.765 656.399 C 553.451 656.949 569.466 655.928 585.194 655.88 L 698.09 655.798 L 769.002 655.984 C 782.701 656.025 798.432 657.499 811.865 654.821 C 827.249 651.754 841.866 643.259 853.383 632.87 C 868.859 618.912 878.866 598.418 879.744 577.516 C 880.644 556.057 871.966 534.191 857.496 518.425 C 828.949 487.322 791.799 491.478 753.41 492.433 C 740.573 492.752 727.652 491.844 714.826 491.276 C 715.363 479.813 715.614 468.449 715.405 456.974 C 720.18 457.046 724.928 456.733 729.692 456.449 z"/>
<path transform="translate(0,0)" fill="rgb(76,164,232)" d="M 998.446 583.457 C 999.584 583.621 1000.71 583.821 1001.81 584.172 C 1012.77 587.676 1026.45 609.838 1031.64 620.064 C 1044.89 646.194 1049.29 681.877 1040.02 709.992 C 1031.09 737.063 1012.78 764.168 986.784 777.093 C 972.917 783.989 959.602 789.196 944.172 790.915 C 929.893 792.506 915.247 792.069 900.892 792.134 L 824.415 792.102 L 702.975 792.002 C 684.779 791.97 666.17 793.111 648.04 792.217 C 645.195 792.077 642.579 791.42 639.888 790.525 C 629.582 781.916 621.398 767.493 613.862 756.3 C 630.157 756.5 646.498 755.355 662.813 755.29 L 816.437 755.146 L 892.789 755.129 C 910.136 755.118 928.491 756.35 945.586 753.081 C 965.886 749.199 981.746 737.816 993.285 720.771 C 997.774 714.139 1002.17 707.033 1004.61 699.362 C 1010.87 679.687 1008.57 649.854 997.608 632.264 C 993.748 626.068 983.986 619.155 982.947 612.019 C 981.61 602.836 993.246 590.394 998.446 583.457 z"/>
<path transform="translate(0,0)" fill="rgb(46,93,147)" d="M 1244.22 448.064 C 1245.39 445.908 1246.56 443.851 1249.04 443.068 C 1256.33 440.769 1267.96 439.332 1274.82 443.283 C 1276.29 444.132 1277.2 445.082 1277.6 446.812 C 1278.05 448.778 1277.76 451.443 1277.72 453.478 C 1278.34 476.914 1275.4 500.706 1276.68 523.97 C 1269.8 523.314 1263.07 523.183 1256.17 523.25 C 1255.64 514.977 1257.7 477.819 1254.99 473.474 C 1247.33 476.972 1240.78 513.667 1231.51 522.277 C 1229.58 524.07 1227.58 525.249 1224.85 524.854 C 1208.49 522.488 1207.14 484.565 1197.64 473.446 L 1196.53 474.118 C 1193.04 486.421 1196.63 509.197 1195.45 523.342 C 1188.86 523.323 1182.14 523.973 1175.56 524.336 C 1172.65 497.239 1176.45 469.39 1174.3 442.157 L 1203.14 441.922 C 1212.59 454.926 1217.16 478.415 1225.67 488.882 L 1227.91 488.917 C 1231.16 483.929 1232.58 476.481 1234.66 470.842 C 1237.51 463.111 1240.7 455.511 1244.22 448.064 z"/>
<path transform="translate(0,0)" fill="rgb(20,65,119)" d="M 1244.22 448.064 C 1245.39 445.908 1246.56 443.851 1249.04 443.068 C 1256.33 440.769 1267.96 439.332 1274.82 443.283 C 1276.29 444.132 1277.2 445.082 1277.6 446.812 C 1278.05 448.778 1277.76 451.443 1277.72 453.478 C 1277.31 452.146 1276.71 450.912 1276.13 449.65 C 1266.45 447.216 1254.04 446.224 1244.22 448.064 z"/>
<path transform="translate(0,0)" fill="rgb(46,93,147)" d="M 1485.67 441.973 C 1508.14 442.07 1531.23 440.454 1553.22 445.779 C 1556.72 449.454 1559.12 452.683 1560.26 457.734 C 1563.8 473.535 1564.41 503.811 1555.43 517.667 C 1541.97 526.225 1502.98 521.958 1486.01 523.983 C 1485.76 496.649 1486.23 469.303 1485.67 441.973 z M 1506.98 508.098 C 1517.32 507.861 1528.06 508.451 1537.8 504.532 C 1540.86 490.182 1540.68 475.703 1538.24 461.289 C 1527.01 455.297 1518.65 458.201 1507.14 455.792 C 1506.85 473.226 1506.8 490.663 1506.98 508.098 z"/>
<path transform="translate(0,0)" fill="rgb(76,164,232)" d="M 1273.49 645.557 C 1283.79 644.425 1299.4 643.729 1308.18 649.749 C 1312.4 652.643 1313.63 658.695 1314.39 663.461 C 1316.2 674.829 1318.12 711.301 1311.07 720.076 C 1306.06 726.301 1296.98 727.526 1289.6 728.066 C 1278.1 728.335 1263.74 729.709 1253.75 722.841 C 1249.91 720.198 1248.8 717.588 1247.98 713.075 C 1245.81 701.213 1244.73 660.454 1252.05 651.306 C 1256.69 645.514 1266.83 645.884 1273.49 645.557 z M 1290.77 717.265 C 1293.94 716.961 1297.39 717.062 1299.72 714.598 C 1305.32 700.73 1303.25 672.953 1300.57 658.089 C 1290.93 656.431 1281.91 656.116 1272.16 656.508 C 1268.78 656.882 1265.28 656.852 1262.49 658.96 C 1257.9 668.295 1258.39 702.541 1262.02 712.699 C 1262.54 714.15 1263.04 714.855 1264.26 715.751 C 1271.51 718.299 1283.16 718.189 1290.77 717.265 z"/>
<path transform="translate(0,0)" fill="rgb(46,93,147)" d="M 915.725 442.482 C 931.427 441.864 947.412 442.082 963.131 442.273 C 970.622 442.364 979.184 443.352 984.589 449.141 C 989.478 454.379 989.841 461.308 989.676 468.113 C 989.405 479.301 985.549 485.078 977.728 492.541 C 981.095 502.986 985.932 513.032 990.339 523.074 L 970.339 522.861 C 964.119 513.4 960.84 504.859 958.557 493.882 L 936.965 494.082 C 937.295 503.56 936.894 513.18 936.648 522.665 C 929.893 522.782 923.139 522.947 916.387 523.161 C 916.089 521.665 915.86 520.156 915.701 518.639 C 914.689 509.006 912.237 446.792 915.725 442.482 z M 965.781 477.265 C 967.641 474.314 968.146 466.669 967.651 463.147 C 967.388 461.275 965.985 459.49 964.435 458.484 C 957.665 454.091 943.935 457.134 935.986 457.018 C 936.801 463.5 935.488 474.628 940.811 479.189 C 946.563 482.178 959.584 478.699 965.781 477.265 z"/>
<path transform="translate(0,0)" fill="rgb(46,93,147)" d="M 1446.8 441.802 C 1453.88 441.713 1460.96 441.41 1468.01 440.894 C 1466.05 454.509 1469.23 518.536 1465.17 523.383 L 1463.56 523.029 C 1459.53 523.372 1454.75 524.175 1450.77 523.508 C 1439.47 521.615 1417.2 481.812 1409.34 471.223 C 1407.35 483.878 1410.97 514.562 1406.41 523.5 C 1400.36 523.427 1394.86 523.729 1388.88 524.78 C 1386.45 498.384 1386.53 467.807 1388.16 441.279 C 1395.88 440.97 1404.05 441.856 1411.8 442.127 C 1425.6 456.313 1434.75 475.472 1448.2 490.334 C 1446.45 474.216 1446.79 457.993 1446.8 441.802 z"/>
<path transform="translate(0,0)" fill="rgb(46,93,147)" d="M 1317.1 441.803 L 1346.33 442.06 C 1354.86 459.243 1361.61 476.744 1368.44 494.662 C 1372.08 504.223 1376.27 513.882 1378.7 523.829 C 1371.55 523.327 1364.41 522.766 1357.24 522.633 C 1354.19 517.392 1351.73 512.247 1349.5 506.609 C 1337.68 505.909 1325.09 505.928 1313.36 507.618 C 1313.06 512.615 1310.42 518.239 1308.26 522.742 C 1300.9 523.046 1293.44 523.095 1286.15 524.237 C 1294.87 507.23 1302.47 482.336 1308.95 463.795 C 1311.44 456.659 1313.34 448.326 1317.1 441.803 z M 1344.92 492.413 C 1344.14 483.275 1336.28 463.77 1331.81 455.612 C 1328.96 463.625 1319.8 485.055 1320.84 492.184 C 1328.86 492.168 1336.9 492.074 1344.92 492.413 z"/>
<path transform="translate(0,0)" fill="rgb(28,79,127)" d="M 1344.92 492.413 C 1346.37 496.932 1349.21 501.933 1349.5 506.609 C 1337.68 505.909 1325.09 505.928 1313.36 507.618 C 1315.16 502.549 1318.93 498.042 1322.02 493.674 L 1320.84 492.184 C 1328.86 492.168 1336.9 492.074 1344.92 492.413 z"/>
<path transform="translate(0,0)" fill="rgb(46,93,147)" d="M 1027.67 441.681 C 1036.81 442.333 1049.47 439.814 1057.8 443.522 C 1061.69 450.081 1063.82 457.909 1066.67 465.003 C 1071.39 476.779 1076.56 488.384 1080.88 500.317 C 1082.8 505.623 1088.99 519.024 1086.86 523.57 C 1085.73 523.837 1084.6 524.084 1083.47 524.31 C 1059.96 528.935 1068.51 512.446 1059.87 506.707 C 1048 505.974 1036.18 506.308 1024.31 506.56 C 1022.67 512.035 1020.5 517.346 1018.44 522.677 C 1011.9 523.023 1005.28 522.906 998.727 522.962 C 1004.84 494.557 1020.12 469.319 1027.67 441.681 z M 1029.74 492.662 C 1035.47 492.227 1040.93 491.87 1046.67 492.47 L 1056.4 492.549 C 1050.98 482.183 1048.8 464.83 1043.46 456.783 C 1036.98 468.2 1034.26 480.471 1029.74 492.662 z"/>
<path transform="translate(0,0)" fill="rgb(76,164,232)" d="M 1166.32 646.434 C 1179.16 645.384 1213.29 642.445 1222.87 650.737 C 1227.83 655.03 1229.21 661.513 1229.51 667.78 C 1229.93 676.313 1229.03 684.191 1223.04 690.74 C 1221.07 692.902 1218.96 694.957 1216.86 697.001 C 1220.29 704.701 1228.81 717.596 1227.43 725.853 C 1225.95 727.721 1225.38 728.409 1222.79 728.567 C 1221.05 728.674 1217.75 728.194 1216.53 726.989 C 1210.53 721.072 1208.76 703.782 1204.1 695.447 C 1196.28 696.24 1188.27 696.084 1180.4 696.669 C 1180.25 697.015 1180.09 697.357 1179.95 697.707 C 1176.61 706.138 1183.31 720.448 1176.65 727.494 C 1174.11 728.614 1172.75 728.647 1170.06 728.004 C 1167.37 725.498 1167.21 723.44 1167.06 719.76 C 1166.06 695.369 1167.81 670.848 1166.32 646.434 z M 1182.24 686.608 C 1187.78 686.137 1193.19 685.906 1198.76 685.907 C 1203.33 685.535 1208.65 685.606 1212.11 682.141 C 1215.25 678.995 1216.86 674.33 1216.99 669.953 C 1217.11 665.764 1216.28 661.985 1213.35 658.872 C 1204.34 654.687 1188.65 656.992 1178.81 657.772 C 1179.07 665.614 1178.23 679.698 1182.24 686.608 z"/>
<path transform="translate(0,0)" fill="rgb(76,164,232)" d="M 1421.05 646.048 C 1431.07 645.605 1467.64 643.249 1475.15 648.934 C 1480.54 653.005 1482.16 661.08 1482.65 667.394 C 1483.21 674.755 1483.03 686.179 1477.55 691.926 C 1471.18 698.609 1455.5 697.286 1446.87 697.52 L 1434.78 698.173 C 1434.05 704.895 1434.62 711.573 1434.29 718.304 C 1434.09 722.624 1433.89 725.762 1430.58 728.757 C 1427.58 728.979 1425.38 728.911 1422.43 728.108 C 1419.4 723.671 1421.37 657.101 1421.05 646.048 z M 1434.69 687.844 C 1445.23 687.227 1456.69 688.525 1466.91 685.768 C 1470.48 680.17 1471.73 672.141 1470.24 665.628 C 1469.61 662.89 1468.36 660.507 1465.98 658.913 C 1458.82 654.121 1442.95 657.27 1434.3 656.913 C 1434.17 667.174 1433.86 677.607 1434.69 687.844 z"/>
<path transform="translate(0,0)" fill="rgb(46,93,147)" d="M 1136.42 455.139 C 1139.04 450.033 1141.17 444.291 1147.11 442.368 C 1152.37 440.667 1159.87 442.073 1165.36 442.487 L 1149.6 469.167 C 1145.99 477.299 1140.48 485.358 1135.7 492.884 C 1132.7 502.428 1133.85 513.456 1134.11 523.367 C 1127.75 523.319 1121.01 523.696 1114.74 522.605 C 1109.58 521.709 1111.48 499.724 1110.22 495.151 C 1107.24 484.338 1085.85 451.949 1078.77 442.091 C 1105 441.418 1104.21 443.752 1116.87 465.221 C 1118.77 468.446 1120.14 472.194 1122.9 474.761 C 1127.98 474.258 1131.94 460.345 1135.77 455.885 L 1136.42 455.139 z"/>
<path transform="translate(0,0)" fill="rgb(20,65,119)" d="M 1136.42 455.139 C 1139.04 450.033 1141.17 444.291 1147.11 442.368 C 1152.37 440.667 1159.87 442.073 1165.36 442.487 L 1149.6 469.167 C 1148.28 466.359 1149.93 461.283 1149.28 457.701 C 1151.33 454.29 1151.92 450.664 1152.7 446.813 C 1155.58 444.992 1157.92 446.945 1161.04 445.306 L 1160.9 444.622 C 1160.74 444.556 1160.58 444.486 1160.41 444.425 C 1144.58 438.632 1145.78 451.1 1136.99 454.922 C 1136.8 455.003 1136.61 455.067 1136.42 455.139 z"/>
<path transform="translate(0,0)" fill="rgb(28,79,127)" d="M 1135.7 492.884 C 1134.93 491.577 1133.84 489.955 1133.56 488.449 C 1132.07 480.495 1144.97 464.062 1149.28 457.701 C 1149.93 461.283 1148.28 466.359 1149.6 469.167 C 1145.99 477.299 1140.48 485.358 1135.7 492.884 z"/>
<path transform="translate(0,0)" fill="rgb(76,164,232)" d="M 1087.82 719.444 C 1081.6 703.118 1079.6 673.747 1086.68 657.581 C 1088.8 652.724 1092.32 649.118 1097.3 647.22 C 1106.33 643.777 1134.45 644.552 1144.1 647.182 C 1145.54 649.684 1145.22 651.478 1144.95 654.222 C 1133.02 665.077 1096.61 640.869 1094.94 675.301 C 1094.43 685.772 1092.03 705.055 1099.6 713.064 C 1103.6 717.3 1110.03 718.062 1115.55 718.03 C 1120.99 717.972 1126.43 717.8 1131.86 717.514 C 1131.93 712.445 1133.56 696.226 1130.47 693.009 C 1127.72 693.112 1123.36 693.712 1120.78 692.919 C 1118.2 692.129 1117.39 690.877 1116.13 688.737 C 1116.59 687.179 1116.64 686.559 1117.91 685.449 C 1122.13 681.762 1128.1 682.949 1133.31 683.219 C 1137.4 682.761 1141.44 682.324 1145.46 681.426 C 1145.12 690.785 1147.31 719.102 1143.52 726.084 C 1137.73 730.797 1117.02 728.705 1109.32 727.891 C 1101.05 727.016 1094.01 725.247 1087.82 719.444 z"/>
<path transform="translate(0,0)" fill="rgb(49,142,210)" d="M 1130.47 693.009 C 1127.72 693.112 1123.36 693.712 1120.78 692.919 C 1118.2 692.129 1117.39 690.877 1116.13 688.737 C 1116.59 687.179 1116.64 686.559 1117.91 685.449 C 1122.13 681.762 1128.1 682.949 1133.31 683.219 C 1132.15 684.23 1131.78 684.692 1131.1 686.085 C 1130.05 688.233 1128.39 689.159 1127.87 691.684 L 1130.47 693.009 z"/>
<path transform="translate(0,0)" fill="rgb(76,164,232)" d="M 1389.87 643.878 C 1391.78 644.08 1393.68 644.463 1395.58 644.788 C 1396.46 645.535 1397.52 646.14 1397.91 647.242 C 1401.6 657.776 1400.13 698.713 1398.2 710.601 C 1397.55 714.573 1396.13 718.076 1394.41 721.69 L 1393.79 722.036 C 1385.68 726.508 1379.89 728.569 1370.47 728.78 C 1361.02 728.991 1348.78 729.186 1341.6 722.057 C 1331.47 712.004 1334.98 677.225 1335.11 662.75 C 1335.27 658.756 1334.2 654.56 1334.7 650.575 C 1335.03 647.951 1335.83 647.413 1337.72 645.828 C 1340.73 645.333 1342.97 645.085 1346.02 645.827 C 1347.31 647.475 1347.34 649.623 1347.46 651.643 C 1348.75 672.638 1345.02 693.526 1349.2 714.484 C 1356.68 716.864 1366.54 719.098 1374.38 717.987 C 1400.79 714.249 1378.19 659.594 1389.87 643.878 z"/>
</svg>